<svg width="250" height="107" viewBox="0 0 250 107" fill="none" xmlns="http://www.w3.org/2000/svg">
<rect width="250" height="107" fill="#090A2F"/>
<path d="M227 38.2574L237 28V78L227 73.8689V56.0632V38.2574Z" fill="white"/>
<path d="M33.664 63.024C35.04 63.024 35.728 63.824 35.728 65.424V70.464C35.728 71.04 35.472 71.44 34.96 71.664C34.48 71.888 33.776 72 32.848 72H17.008C15.536 72 14.8 71.2 14.8 69.6V40.368C14.8 39.472 14.96 38.848 15.28 38.496C15.632 38.144 16.176 37.968 16.912 37.968C18.96 37.968 19.984 39.2 19.984 41.664V69.456H30.88V66.144C30.88 64.992 31.12 64.192 31.6 63.744C32.08 63.264 32.768 63.024 33.664 63.024ZM46.4939 68.736C46.4939 70.176 46.2379 71.088 45.7259 71.472C45.2459 71.824 44.4779 72 43.4219 72C42.6539 72 42.1419 71.808 41.8859 71.424C41.6299 71.008 41.5019 70.448 41.5019 69.744V50.16C41.5019 49.424 41.6299 48.864 41.8859 48.48C42.1419 48.096 42.6539 47.904 43.4219 47.904C45.4699 47.904 46.4939 48.976 46.4939 51.12V68.736ZM40.9259 41.808C40.9259 40.976 41.2139 40.272 41.7899 39.696C42.3979 39.12 43.1019 38.832 43.9019 38.832C44.7339 38.832 45.4379 39.12 46.0139 39.696C46.5899 40.272 46.8779 40.976 46.8779 41.808C46.8779 42.608 46.5899 43.312 46.0139 43.92C45.4379 44.496 44.7339 44.784 43.9019 44.784C43.1019 44.784 42.3979 44.496 41.7899 43.92C41.2139 43.312 40.9259 42.608 40.9259 41.808ZM54.4338 49.968C54.4338 49.2 54.5938 48.672 54.9138 48.384C55.2658 48.064 55.7938 47.904 56.4978 47.904C57.3618 47.904 58.0498 48.24 58.5618 48.912C59.0738 49.584 59.3298 50.624 59.3298 52.032V52.368H59.4258C60.2258 51.088 61.3298 50.032 62.7378 49.2C64.1458 48.336 65.8418 47.904 67.8258 47.904C72.3378 47.904 74.5938 50.32 74.5938 55.152V69.744C74.5938 70.448 74.4658 71.008 74.2098 71.424C73.9538 71.808 73.4418 72 72.6738 72C71.6178 72 70.8338 71.712 70.3218 71.136C69.8418 70.528 69.6018 69.504 69.6018 68.064V56.064C69.6018 54.176 69.2018 52.88 68.4018 52.176C67.6018 51.472 66.6418 51.12 65.5218 51.12C64.6258 51.12 63.6978 51.36 62.7378 51.84C61.8098 52.32 61.0258 52.976 60.3858 53.808C59.7458 54.64 59.4258 55.584 59.4258 56.64V68.592C59.4258 70.032 59.1698 70.96 58.6578 71.376C58.1778 71.792 57.4098 72 56.3538 72C55.5858 72 55.0738 71.808 54.8178 71.424C54.5618 71.008 54.4338 70.448 54.4338 69.744V49.968ZM102.582 46.32C101.686 46.32 100.998 46.096 100.518 45.648C100.038 45.168 99.7975 44.352 99.7975 43.2V40.512H88.4215V53.088H98.5015C98.9495 53.088 99.2855 53.232 99.5095 53.52C99.7335 53.776 99.8455 54.08 99.8455 54.432C99.8455 54.752 99.7015 55.056 99.4135 55.344C99.1575 55.6 98.8535 55.728 98.5015 55.728H88.4215V69.456H100.518V66.768C100.518 65.616 100.758 64.816 101.238 64.368C101.718 63.888 102.406 63.648 103.302 63.648C104.678 63.648 105.366 64.448 105.366 66.048V70.224C105.366 70.928 105.11 71.408 104.598 71.664C104.118 71.888 103.414 72 102.486 72H85.4455C83.9735 72 83.2375 71.2 83.2375 69.6V40.368C83.2375 38.768 83.9735 37.968 85.4455 37.968H101.766C102.694 37.968 103.398 38.08 103.878 38.304C104.39 38.528 104.646 39.008 104.646 39.744V43.92C104.646 45.52 103.958 46.32 102.582 46.32ZM124.018 66.144C124.018 65.184 123.73 64.416 123.154 63.84C122.61 63.264 121.858 62.768 120.898 62.352C119.938 61.936 118.882 61.536 117.73 61.152C116.258 60.64 114.93 60.128 113.746 59.616C112.594 59.072 111.666 58.4 110.962 57.6C110.29 56.768 109.954 55.664 109.954 54.288C109.954 52.944 110.274 51.856 110.914 51.024C111.554 50.16 112.354 49.504 113.314 49.056C114.306 48.608 115.298 48.304 116.29 48.144C117.282 47.984 118.13 47.904 118.834 47.904C120.05 47.904 121.202 48 122.29 48.192C123.378 48.384 124.306 48.688 125.074 49.104C125.714 49.424 126.29 49.856 126.802 50.4C127.346 50.944 127.618 51.584 127.618 52.32C127.618 52.832 127.426 53.248 127.042 53.568C126.658 53.888 126.226 54.048 125.746 54.048C125.042 54.048 124.498 53.888 124.114 53.568C123.73 53.248 123.41 52.832 123.154 52.32C122.834 51.68 122.354 51.104 121.714 50.592C121.106 50.08 120.162 49.824 118.882 49.824C117.794 49.824 116.834 50.112 116.002 50.688C115.17 51.232 114.754 52.128 114.754 53.376C114.754 54.24 115.01 54.944 115.522 55.488C116.034 56.032 116.722 56.496 117.586 56.88C118.482 57.264 119.474 57.648 120.562 58.032C121.874 58.48 123.17 58.992 124.45 59.568C125.73 60.112 126.786 60.8 127.618 61.632C128.482 62.464 128.914 63.536 128.914 64.848C128.914 66.288 128.482 67.552 127.618 68.64C126.786 69.696 125.618 70.528 124.114 71.136C122.642 71.712 120.93 72 118.978 72C117.506 72 116.162 71.856 114.946 71.568C113.73 71.248 112.738 70.88 111.97 70.464C111.33 70.112 110.77 69.68 110.29 69.168C109.842 68.624 109.618 68 109.618 67.296C109.618 66.752 109.826 66.32 110.242 66C110.658 65.68 111.074 65.52 111.49 65.52C112.194 65.52 112.754 65.68 113.17 66C113.586 66.288 113.906 66.704 114.13 67.248C114.45 67.888 114.946 68.528 115.618 69.168C116.322 69.776 117.474 70.08 119.074 70.08C120.354 70.08 121.49 69.776 122.482 69.168C123.506 68.56 124.018 67.552 124.018 66.144ZM134.824 49.968C134.824 49.168 135 48.624 135.352 48.336C135.704 48.048 136.152 47.904 136.696 47.904C137.72 47.904 138.472 48.24 138.952 48.912C139.432 49.552 139.688 50.592 139.72 52.032V52.416H139.768C140.536 51.136 141.496 50.064 142.648 49.2C143.832 48.336 145.416 47.904 147.4 47.904C148.808 47.904 150.136 48.208 151.384 48.816C152.632 49.392 153.64 50.464 154.408 52.032C155.208 53.6 155.608 55.84 155.608 58.752C155.608 63.232 154.584 66.56 152.536 68.736C150.488 70.912 147.704 72 144.184 72C142.584 72 141.128 71.696 139.816 71.088V79.152C139.816 80.592 139.56 81.52 139.048 81.936C138.568 82.352 137.8 82.56 136.744 82.56C135.976 82.56 135.464 82.352 135.208 81.936C134.952 81.552 134.824 81.008 134.824 80.304V49.968ZM150.424 59.136C150.424 56.96 150.2 55.296 149.752 54.144C149.304 52.992 148.712 52.208 147.976 51.792C147.24 51.344 146.408 51.12 145.48 51.12C144.616 51.12 143.736 51.392 142.84 51.936C141.976 52.48 141.24 53.184 140.632 54.048C140.056 54.88 139.768 55.776 139.768 56.736V67.152C139.768 67.792 140.136 68.448 140.872 69.12C141.64 69.76 142.744 70.08 144.184 70.08C145.432 70.08 146.52 69.744 147.448 69.072C148.376 68.4 149.096 67.264 149.608 65.664C150.152 64.064 150.424 61.888 150.424 59.136ZM167.244 68.736C167.244 70.176 166.988 71.088 166.476 71.472C165.996 71.824 165.228 72 164.172 72C163.404 72 162.892 71.808 162.636 71.424C162.38 71.008 162.252 70.448 162.252 69.744V50.16C162.252 49.424 162.38 48.864 162.636 48.48C162.892 48.096 163.404 47.904 164.172 47.904C166.22 47.904 167.244 48.976 167.244 51.12V68.736ZM161.676 41.808C161.676 40.976 161.964 40.272 162.54 39.696C163.148 39.12 163.852 38.832 164.652 38.832C165.484 38.832 166.188 39.12 166.764 39.696C167.34 40.272 167.628 40.976 167.628 41.808C167.628 42.608 167.34 43.312 166.764 43.92C166.188 44.496 165.484 44.784 164.652 44.784C163.852 44.784 163.148 44.496 162.54 43.92C161.964 43.312 161.676 42.608 161.676 41.808ZM175.184 49.968C175.184 49.2 175.344 48.672 175.664 48.384C176.016 48.064 176.544 47.904 177.248 47.904C178.112 47.904 178.8 48.24 179.312 48.912C179.824 49.584 180.08 50.624 180.08 52.032V52.368H180.176C180.976 51.088 182.08 50.032 183.488 49.2C184.896 48.336 186.592 47.904 188.576 47.904C193.088 47.904 195.344 50.32 195.344 55.152V69.744C195.344 70.448 195.216 71.008 194.96 71.424C194.704 71.808 194.192 72 193.424 72C192.368 72 191.584 71.712 191.072 71.136C190.592 70.528 190.352 69.504 190.352 68.064V56.064C190.352 54.176 189.952 52.88 189.152 52.176C188.352 51.472 187.392 51.12 186.272 51.12C185.376 51.12 184.448 51.36 183.488 51.84C182.56 52.32 181.776 52.976 181.136 53.808C180.496 54.64 180.176 55.584 180.176 56.64V68.592C180.176 70.032 179.92 70.96 179.408 71.376C178.928 71.792 178.16 72 177.104 72C176.336 72 175.824 71.808 175.568 71.424C175.312 71.008 175.184 70.448 175.184 69.744V49.968ZM216.948 67.44C215.892 69.008 214.676 70.16 213.299 70.896C211.956 71.632 210.356 72 208.5 72C206.068 72 204.244 71.408 203.028 70.224C201.844 69.008 201.252 67.44 201.252 65.52C201.252 64.496 201.428 63.488 201.78 62.496C202.132 61.472 202.756 60.56 203.652 59.76C204.548 58.96 205.78 58.32 207.348 57.84C208.916 57.36 210.916 57.12 213.348 57.12H216.852V55.776C216.852 53.568 216.468 52.032 215.7 51.168C214.964 50.272 213.748 49.824 212.052 49.824C211.06 49.824 210.212 50.032 209.508 50.448C208.836 50.864 208.276 51.328 207.828 51.84C207.348 52.352 206.868 52.768 206.388 53.088C205.908 53.376 205.412 53.52 204.9 53.52C204.324 53.52 203.892 53.36 203.604 53.04C203.348 52.688 203.22 52.304 203.22 51.888C203.22 51.216 203.476 50.688 203.988 50.304C204.5 49.888 205.124 49.52 205.86 49.2C206.948 48.752 208.148 48.432 209.46 48.24C210.804 48.016 211.988 47.904 213.012 47.904C215.38 47.904 217.204 48.24 218.484 48.912C219.764 49.552 220.644 50.512 221.124 51.792C221.636 53.072 221.892 54.672 221.892 56.592V69.744C221.892 70.448 221.764 71.008 221.508 71.424C221.284 71.808 220.788 72 220.02 72C218.964 72 218.212 71.648 217.764 70.944C217.316 70.208 217.092 69.056 217.092 67.488L216.948 67.44ZM214.116 59.136C212.068 59.136 210.468 59.392 209.316 59.904C208.164 60.416 207.364 61.104 206.916 61.968C206.468 62.832 206.243 63.792 206.243 64.848C206.243 66.32 206.628 67.344 207.396 67.92C208.164 68.496 209.172 68.784 210.42 68.784C211.22 68.784 212.116 68.592 213.108 68.208C214.132 67.792 215.012 67.168 215.748 66.336C216.516 65.504 216.9 64.448 216.9 63.168V59.136H214.116Z" fill="white"/>
<path d="M234.463 68.736C234.463 70.176 234.207 71.088 233.695 71.472C233.215 71.824 232.447 72 231.391 72C230.623 72 230.111 71.808 229.855 71.424C229.599 71.008 229.471 70.448 229.471 69.744V37.776C229.471 37.04 229.599 36.48 229.855 36.096C230.111 35.712 230.623 35.52 231.391 35.52C232.447 35.52 233.215 35.824 233.695 36.432C234.207 37.008 234.463 38.016 234.463 39.456V68.736Z" fill="#090A2F"/>
</svg>
